<mxfile host="Electron" modified="2023-12-18T18:07:45.581Z" agent="Mozilla/5.0 (Windows NT 10.0; Win64; x64) AppleWebKit/537.36 (KHTML, like Gecko) draw.io/22.1.2 Chrome/114.0.5735.289 Electron/25.9.4 Safari/537.36" etag="FwP0kMO1_RmjZmuz8Ia-" version="22.1.2" type="device">
  <diagram id="C5RBs43oDa-KdzZeNtuy" name="Page-1">
    <mxGraphModel dx="3417" dy="1515" grid="1" gridSize="10" guides="1" tooltips="1" connect="1" arrows="1" fold="1" page="1" pageScale="1" pageWidth="827" pageHeight="1169" math="0" shadow="0">
      <root>
        <mxCell id="WIyWlLk6GJQsqaUBKTNV-0" />
        <mxCell id="WIyWlLk6GJQsqaUBKTNV-1" parent="WIyWlLk6GJQsqaUBKTNV-0" />
        <mxCell id="7PSN6oOn31Voh3faXzmX-0" style="edgeStyle=orthogonalEdgeStyle;rounded=0;orthogonalLoop=1;jettySize=auto;html=1;exitX=0.5;exitY=1;exitDx=0;exitDy=0;" edge="1" parent="WIyWlLk6GJQsqaUBKTNV-1" source="WIyWlLk6GJQsqaUBKTNV-3" target="WIyWlLk6GJQsqaUBKTNV-6">
          <mxGeometry relative="1" as="geometry" />
        </mxCell>
        <mxCell id="7PSN6oOn31Voh3faXzmX-3" style="edgeStyle=orthogonalEdgeStyle;rounded=0;orthogonalLoop=1;jettySize=auto;html=1;exitX=0.5;exitY=1;exitDx=0;exitDy=0;entryX=0.5;entryY=0;entryDx=0;entryDy=0;" edge="1" parent="WIyWlLk6GJQsqaUBKTNV-1" source="WIyWlLk6GJQsqaUBKTNV-3" target="7PSN6oOn31Voh3faXzmX-2">
          <mxGeometry relative="1" as="geometry" />
        </mxCell>
        <mxCell id="WIyWlLk6GJQsqaUBKTNV-3" value="Submission of initial question" style="rounded=1;whiteSpace=wrap;html=1;fontSize=12;glass=0;strokeWidth=1;shadow=0;fillColor=#e1d5e7;strokeColor=#9673a6;" parent="WIyWlLk6GJQsqaUBKTNV-1" vertex="1">
          <mxGeometry x="160" y="30" width="120" height="40" as="geometry" />
        </mxCell>
        <mxCell id="7PSN6oOn31Voh3faXzmX-156" style="edgeStyle=orthogonalEdgeStyle;rounded=0;orthogonalLoop=1;jettySize=auto;html=1;exitX=1;exitY=1;exitDx=0;exitDy=0;entryX=0.5;entryY=0;entryDx=0;entryDy=0;" edge="1" parent="WIyWlLk6GJQsqaUBKTNV-1" source="WIyWlLk6GJQsqaUBKTNV-6" target="7PSN6oOn31Voh3faXzmX-4">
          <mxGeometry relative="1" as="geometry">
            <Array as="points">
              <mxPoint x="145" y="240" />
              <mxPoint x="150" y="240" />
            </Array>
          </mxGeometry>
        </mxCell>
        <mxCell id="WIyWlLk6GJQsqaUBKTNV-6" value="01_ident_search_terms" style="rhombus;whiteSpace=wrap;html=1;shadow=0;fontFamily=Helvetica;fontSize=12;align=center;strokeWidth=1;spacing=6;spacingTop=-4;fillColor=#fff2cc;strokeColor=#d6b656;" parent="WIyWlLk6GJQsqaUBKTNV-1" vertex="1">
          <mxGeometry x="10" y="110" width="180" height="110" as="geometry" />
        </mxCell>
        <mxCell id="7PSN6oOn31Voh3faXzmX-107" style="edgeStyle=orthogonalEdgeStyle;rounded=0;orthogonalLoop=1;jettySize=auto;html=1;exitX=0;exitY=1;exitDx=0;exitDy=0;entryX=1;entryY=0;entryDx=0;entryDy=0;" edge="1" parent="WIyWlLk6GJQsqaUBKTNV-1" source="7PSN6oOn31Voh3faXzmX-2" target="7PSN6oOn31Voh3faXzmX-103">
          <mxGeometry relative="1" as="geometry">
            <Array as="points">
              <mxPoint x="305" y="400" />
              <mxPoint x="265" y="400" />
            </Array>
          </mxGeometry>
        </mxCell>
        <mxCell id="7PSN6oOn31Voh3faXzmX-110" style="edgeStyle=orthogonalEdgeStyle;rounded=0;orthogonalLoop=1;jettySize=auto;html=1;exitX=0.5;exitY=1;exitDx=0;exitDy=0;entryX=1;entryY=0;entryDx=0;entryDy=0;" edge="1" parent="WIyWlLk6GJQsqaUBKTNV-1" source="7PSN6oOn31Voh3faXzmX-2" target="7PSN6oOn31Voh3faXzmX-6">
          <mxGeometry relative="1" as="geometry">
            <Array as="points">
              <mxPoint x="350" y="520" />
              <mxPoint x="305" y="520" />
            </Array>
          </mxGeometry>
        </mxCell>
        <mxCell id="7PSN6oOn31Voh3faXzmX-117" style="edgeStyle=orthogonalEdgeStyle;rounded=0;orthogonalLoop=1;jettySize=auto;html=1;exitX=1;exitY=1;exitDx=0;exitDy=0;entryX=1;entryY=0;entryDx=0;entryDy=0;" edge="1" parent="WIyWlLk6GJQsqaUBKTNV-1" source="7PSN6oOn31Voh3faXzmX-2" target="7PSN6oOn31Voh3faXzmX-16">
          <mxGeometry relative="1" as="geometry" />
        </mxCell>
        <mxCell id="7PSN6oOn31Voh3faXzmX-2" value="01_2 - Generation of &lt;br&gt;inclusion / exclusion criteria" style="rhombus;whiteSpace=wrap;html=1;shadow=0;fontFamily=Helvetica;fontSize=12;align=center;strokeWidth=1;spacing=6;spacingTop=-4;fillColor=#fff2cc;strokeColor=#d6b656;" vertex="1" parent="WIyWlLk6GJQsqaUBKTNV-1">
          <mxGeometry x="260" y="110" width="180" height="110" as="geometry" />
        </mxCell>
        <mxCell id="7PSN6oOn31Voh3faXzmX-7" style="edgeStyle=orthogonalEdgeStyle;rounded=0;orthogonalLoop=1;jettySize=auto;html=1;exitX=0.5;exitY=1;exitDx=0;exitDy=0;entryX=0.25;entryY=0.2;entryDx=0;entryDy=0;entryPerimeter=0;" edge="1" parent="WIyWlLk6GJQsqaUBKTNV-1" source="7PSN6oOn31Voh3faXzmX-4" target="7PSN6oOn31Voh3faXzmX-103">
          <mxGeometry relative="1" as="geometry">
            <Array as="points">
              <mxPoint x="150" y="400" />
              <mxPoint x="175" y="400" />
            </Array>
          </mxGeometry>
        </mxCell>
        <mxCell id="7PSN6oOn31Voh3faXzmX-4" value="02_1_abstract_autodump" style="rhombus;whiteSpace=wrap;html=1;fillColor=#d5e8d4;strokeColor=#82b366;" vertex="1" parent="WIyWlLk6GJQsqaUBKTNV-1">
          <mxGeometry x="60" y="270" width="180" height="100" as="geometry" />
        </mxCell>
        <mxCell id="7PSN6oOn31Voh3faXzmX-109" style="edgeStyle=orthogonalEdgeStyle;rounded=0;orthogonalLoop=1;jettySize=auto;html=1;exitX=0.5;exitY=1;exitDx=0;exitDy=0;entryX=0.5;entryY=0;entryDx=0;entryDy=0;" edge="1" parent="WIyWlLk6GJQsqaUBKTNV-1" source="7PSN6oOn31Voh3faXzmX-6" target="7PSN6oOn31Voh3faXzmX-108">
          <mxGeometry relative="1" as="geometry" />
        </mxCell>
        <mxCell id="7PSN6oOn31Voh3faXzmX-6" value="02_abstract_screening" style="rhombus;whiteSpace=wrap;html=1;fillColor=#dae8fc;strokeColor=#6c8ebf;" vertex="1" parent="WIyWlLk6GJQsqaUBKTNV-1">
          <mxGeometry x="170" y="520" width="180" height="100" as="geometry" />
        </mxCell>
        <mxCell id="7PSN6oOn31Voh3faXzmX-127" style="edgeStyle=orthogonalEdgeStyle;rounded=0;orthogonalLoop=1;jettySize=auto;html=1;exitX=0.5;exitY=1;exitDx=0;exitDy=0;entryX=0;entryY=0;entryDx=0;entryDy=0;" edge="1" parent="WIyWlLk6GJQsqaUBKTNV-1" source="7PSN6oOn31Voh3faXzmX-9" target="7PSN6oOn31Voh3faXzmX-174">
          <mxGeometry relative="1" as="geometry">
            <mxPoint x="230.00000000000023" y="910" as="targetPoint" />
          </mxGeometry>
        </mxCell>
        <mxCell id="7PSN6oOn31Voh3faXzmX-9" value="quality_assessment &lt;br&gt;(WELCHE CHECKLIST)" style="rhombus;whiteSpace=wrap;html=1;fillColor=#dae8fc;strokeColor=#6c8ebf;" vertex="1" parent="WIyWlLk6GJQsqaUBKTNV-1">
          <mxGeometry x="-50" y="770" width="180" height="100" as="geometry" />
        </mxCell>
        <mxCell id="7PSN6oOn31Voh3faXzmX-124" style="edgeStyle=orthogonalEdgeStyle;rounded=0;orthogonalLoop=1;jettySize=auto;html=1;exitX=0.5;exitY=1;exitDx=0;exitDy=0;entryX=0.5;entryY=0;entryDx=0;entryDy=0;" edge="1" parent="WIyWlLk6GJQsqaUBKTNV-1" source="7PSN6oOn31Voh3faXzmX-15">
          <mxGeometry relative="1" as="geometry">
            <mxPoint x="260" y="910" as="targetPoint" />
          </mxGeometry>
        </mxCell>
        <mxCell id="7PSN6oOn31Voh3faXzmX-15" value="ROB_assessment &lt;br&gt;(Cochrane Checklist)" style="rhombus;whiteSpace=wrap;html=1;fillColor=#dae8fc;strokeColor=#6c8ebf;" vertex="1" parent="WIyWlLk6GJQsqaUBKTNV-1">
          <mxGeometry x="170" y="770" width="180" height="100" as="geometry" />
        </mxCell>
        <mxCell id="7PSN6oOn31Voh3faXzmX-142" style="edgeStyle=orthogonalEdgeStyle;rounded=0;orthogonalLoop=1;jettySize=auto;html=1;exitX=0.5;exitY=1;exitDx=0;exitDy=0;entryX=0;entryY=0;entryDx=0;entryDy=0;" edge="1" parent="WIyWlLk6GJQsqaUBKTNV-1" target="7PSN6oOn31Voh3faXzmX-6">
          <mxGeometry relative="1" as="geometry">
            <mxPoint x="220" y="500" as="sourcePoint" />
          </mxGeometry>
        </mxCell>
        <mxCell id="7PSN6oOn31Voh3faXzmX-103" value="02_title_screening" style="rhombus;whiteSpace=wrap;html=1;fillColor=#dae8fc;strokeColor=#6c8ebf;" vertex="1" parent="WIyWlLk6GJQsqaUBKTNV-1">
          <mxGeometry x="130" y="400" width="180" height="100" as="geometry" />
        </mxCell>
        <mxCell id="7PSN6oOn31Voh3faXzmX-114" style="edgeStyle=orthogonalEdgeStyle;rounded=0;orthogonalLoop=1;jettySize=auto;html=1;exitX=0;exitY=1;exitDx=0;exitDy=0;entryX=0.5;entryY=0;entryDx=0;entryDy=0;" edge="1" parent="WIyWlLk6GJQsqaUBKTNV-1" source="7PSN6oOn31Voh3faXzmX-108" target="7PSN6oOn31Voh3faXzmX-9">
          <mxGeometry relative="1" as="geometry" />
        </mxCell>
        <mxCell id="7PSN6oOn31Voh3faXzmX-115" style="edgeStyle=orthogonalEdgeStyle;rounded=0;orthogonalLoop=1;jettySize=auto;html=1;exitX=0.5;exitY=1;exitDx=0;exitDy=0;entryX=0.5;entryY=0;entryDx=0;entryDy=0;" edge="1" parent="WIyWlLk6GJQsqaUBKTNV-1" source="7PSN6oOn31Voh3faXzmX-108" target="7PSN6oOn31Voh3faXzmX-15">
          <mxGeometry relative="1" as="geometry" />
        </mxCell>
        <mxCell id="7PSN6oOn31Voh3faXzmX-121" style="edgeStyle=orthogonalEdgeStyle;rounded=0;orthogonalLoop=1;jettySize=auto;html=1;exitX=1;exitY=1;exitDx=0;exitDy=0;entryX=0;entryY=0;entryDx=0;entryDy=0;" edge="1" parent="WIyWlLk6GJQsqaUBKTNV-1" source="7PSN6oOn31Voh3faXzmX-108" target="7PSN6oOn31Voh3faXzmX-16">
          <mxGeometry relative="1" as="geometry" />
        </mxCell>
        <mxCell id="7PSN6oOn31Voh3faXzmX-108" value="fulltext_access" style="rhombus;whiteSpace=wrap;html=1;fillColor=#d5e8d4;strokeColor=#82b366;" vertex="1" parent="WIyWlLk6GJQsqaUBKTNV-1">
          <mxGeometry x="170" y="640" width="180" height="100" as="geometry" />
        </mxCell>
        <mxCell id="7PSN6oOn31Voh3faXzmX-125" style="edgeStyle=orthogonalEdgeStyle;rounded=0;orthogonalLoop=1;jettySize=auto;html=1;exitX=0.5;exitY=1;exitDx=0;exitDy=0;entryX=1;entryY=0;entryDx=0;entryDy=0;" edge="1" parent="WIyWlLk6GJQsqaUBKTNV-1" source="7PSN6oOn31Voh3faXzmX-16" target="7PSN6oOn31Voh3faXzmX-174">
          <mxGeometry relative="1" as="geometry">
            <mxPoint x="290" y="910" as="targetPoint" />
          </mxGeometry>
        </mxCell>
        <mxCell id="7PSN6oOn31Voh3faXzmX-16" value="methods_assessment&lt;br&gt;(inclusion/exclusion)" style="rhombus;whiteSpace=wrap;html=1;fillColor=#dae8fc;strokeColor=#6c8ebf;" vertex="1" parent="WIyWlLk6GJQsqaUBKTNV-1">
          <mxGeometry x="380" y="770" width="180" height="100" as="geometry" />
        </mxCell>
        <mxCell id="7PSN6oOn31Voh3faXzmX-129" style="edgeStyle=orthogonalEdgeStyle;rounded=0;orthogonalLoop=1;jettySize=auto;html=1;exitX=0.5;exitY=1;exitDx=0;exitDy=0;entryX=0.5;entryY=0;entryDx=0;entryDy=0;" edge="1" parent="WIyWlLk6GJQsqaUBKTNV-1" target="7PSN6oOn31Voh3faXzmX-128">
          <mxGeometry relative="1" as="geometry">
            <mxPoint x="260" y="970" as="sourcePoint" />
          </mxGeometry>
        </mxCell>
        <mxCell id="7PSN6oOn31Voh3faXzmX-132" style="edgeStyle=orthogonalEdgeStyle;rounded=0;orthogonalLoop=1;jettySize=auto;html=1;exitX=1;exitY=0.5;exitDx=0;exitDy=0;entryX=0;entryY=0.5;entryDx=0;entryDy=0;" edge="1" parent="WIyWlLk6GJQsqaUBKTNV-1" source="7PSN6oOn31Voh3faXzmX-128" target="7PSN6oOn31Voh3faXzmX-131">
          <mxGeometry relative="1" as="geometry" />
        </mxCell>
        <mxCell id="7PSN6oOn31Voh3faXzmX-128" value="data_extraction" style="rhombus;whiteSpace=wrap;html=1;fillColor=#dae8fc;strokeColor=#6c8ebf;" vertex="1" parent="WIyWlLk6GJQsqaUBKTNV-1">
          <mxGeometry x="170" y="1030" width="180" height="100" as="geometry" />
        </mxCell>
        <mxCell id="7PSN6oOn31Voh3faXzmX-134" style="edgeStyle=orthogonalEdgeStyle;rounded=0;orthogonalLoop=1;jettySize=auto;html=1;exitX=1;exitY=0.5;exitDx=0;exitDy=0;entryX=0;entryY=0.5;entryDx=0;entryDy=0;" edge="1" parent="WIyWlLk6GJQsqaUBKTNV-1" source="7PSN6oOn31Voh3faXzmX-131" target="7PSN6oOn31Voh3faXzmX-133">
          <mxGeometry relative="1" as="geometry" />
        </mxCell>
        <mxCell id="7PSN6oOn31Voh3faXzmX-159" style="edgeStyle=orthogonalEdgeStyle;rounded=0;orthogonalLoop=1;jettySize=auto;html=1;exitX=0.5;exitY=1;exitDx=0;exitDy=0;entryX=0.89;entryY=-0.003;entryDx=0;entryDy=0;entryPerimeter=0;" edge="1" parent="WIyWlLk6GJQsqaUBKTNV-1" source="7PSN6oOn31Voh3faXzmX-131" target="7PSN6oOn31Voh3faXzmX-145">
          <mxGeometry relative="1" as="geometry">
            <mxPoint x="471" y="1210" as="targetPoint" />
          </mxGeometry>
        </mxCell>
        <mxCell id="7PSN6oOn31Voh3faXzmX-160" value="Code" style="edgeLabel;html=1;align=center;verticalAlign=middle;resizable=0;points=[];" vertex="1" connectable="0" parent="7PSN6oOn31Voh3faXzmX-159">
          <mxGeometry x="-0.1569" relative="1" as="geometry">
            <mxPoint as="offset" />
          </mxGeometry>
        </mxCell>
        <mxCell id="7PSN6oOn31Voh3faXzmX-131" value="meta_review_execution" style="rhombus;whiteSpace=wrap;html=1;fillColor=#dae8fc;strokeColor=#6c8ebf;" vertex="1" parent="WIyWlLk6GJQsqaUBKTNV-1">
          <mxGeometry x="380" y="1030" width="180" height="100" as="geometry" />
        </mxCell>
        <mxCell id="7PSN6oOn31Voh3faXzmX-141" style="edgeStyle=orthogonalEdgeStyle;rounded=0;orthogonalLoop=1;jettySize=auto;html=1;exitX=0.5;exitY=1;exitDx=0;exitDy=0;entryX=0.5;entryY=0;entryDx=0;entryDy=0;" edge="1" parent="WIyWlLk6GJQsqaUBKTNV-1" source="7PSN6oOn31Voh3faXzmX-133" target="7PSN6oOn31Voh3faXzmX-139">
          <mxGeometry relative="1" as="geometry" />
        </mxCell>
        <mxCell id="7PSN6oOn31Voh3faXzmX-167" value="Paper" style="edgeLabel;html=1;align=center;verticalAlign=middle;resizable=0;points=[];" vertex="1" connectable="0" parent="7PSN6oOn31Voh3faXzmX-141">
          <mxGeometry x="-0.2144" relative="1" as="geometry">
            <mxPoint as="offset" />
          </mxGeometry>
        </mxCell>
        <mxCell id="7PSN6oOn31Voh3faXzmX-133" value="meta_review_writing" style="rhombus;whiteSpace=wrap;html=1;fillColor=#dae8fc;strokeColor=#6c8ebf;" vertex="1" parent="WIyWlLk6GJQsqaUBKTNV-1">
          <mxGeometry x="590" y="1030" width="180" height="100" as="geometry" />
        </mxCell>
        <mxCell id="7PSN6oOn31Voh3faXzmX-137" style="edgeStyle=orthogonalEdgeStyle;rounded=0;orthogonalLoop=1;jettySize=auto;html=1;exitX=0;exitY=0.5;exitDx=0;exitDy=0;entryX=0.5;entryY=0;entryDx=0;entryDy=0;" edge="1" parent="WIyWlLk6GJQsqaUBKTNV-1" source="7PSN6oOn31Voh3faXzmX-135" target="7PSN6oOn31Voh3faXzmX-131">
          <mxGeometry relative="1" as="geometry">
            <Array as="points">
              <mxPoint x="590" y="810" />
              <mxPoint x="590" y="930" />
              <mxPoint x="470" y="930" />
            </Array>
          </mxGeometry>
        </mxCell>
        <mxCell id="7PSN6oOn31Voh3faXzmX-135" value="Meta-review templates" style="rounded=1;whiteSpace=wrap;html=1;fillColor=#e1d5e7;strokeColor=#9673a6;" vertex="1" parent="WIyWlLk6GJQsqaUBKTNV-1">
          <mxGeometry x="620" y="780" width="120" height="60" as="geometry" />
        </mxCell>
        <mxCell id="7PSN6oOn31Voh3faXzmX-138" style="edgeStyle=orthogonalEdgeStyle;rounded=0;orthogonalLoop=1;jettySize=auto;html=1;" edge="1" parent="WIyWlLk6GJQsqaUBKTNV-1" source="7PSN6oOn31Voh3faXzmX-136" target="7PSN6oOn31Voh3faXzmX-133">
          <mxGeometry relative="1" as="geometry" />
        </mxCell>
        <mxCell id="7PSN6oOn31Voh3faXzmX-136" value="Paper template" style="rounded=1;whiteSpace=wrap;html=1;fillColor=#e1d5e7;strokeColor=#9673a6;" vertex="1" parent="WIyWlLk6GJQsqaUBKTNV-1">
          <mxGeometry x="620" y="880" width="120" height="60" as="geometry" />
        </mxCell>
        <mxCell id="7PSN6oOn31Voh3faXzmX-139" value="Final Paper" style="rounded=1;whiteSpace=wrap;html=1;fillColor=#f8cecc;strokeColor=#b85450;" vertex="1" parent="WIyWlLk6GJQsqaUBKTNV-1">
          <mxGeometry x="565" y="1220" width="230" height="60" as="geometry" />
        </mxCell>
        <mxCell id="7PSN6oOn31Voh3faXzmX-145" value="Open Data and Open Code" style="rounded=1;whiteSpace=wrap;html=1;fillColor=#f8cecc;strokeColor=#b85450;" vertex="1" parent="WIyWlLk6GJQsqaUBKTNV-1">
          <mxGeometry x="-100" y="1220" width="640" height="60" as="geometry" />
        </mxCell>
        <mxCell id="7PSN6oOn31Voh3faXzmX-148" style="edgeStyle=orthogonalEdgeStyle;rounded=0;orthogonalLoop=1;jettySize=auto;html=1;exitX=0.5;exitY=1;exitDx=0;exitDy=0;" edge="1" parent="WIyWlLk6GJQsqaUBKTNV-1" source="7PSN6oOn31Voh3faXzmX-128">
          <mxGeometry relative="1" as="geometry">
            <mxPoint x="260" y="1220" as="targetPoint" />
            <Array as="points">
              <mxPoint x="260" y="1220" />
            </Array>
          </mxGeometry>
        </mxCell>
        <mxCell id="7PSN6oOn31Voh3faXzmX-149" value="Data" style="edgeLabel;html=1;align=center;verticalAlign=middle;resizable=0;points=[];" vertex="1" connectable="0" parent="7PSN6oOn31Voh3faXzmX-148">
          <mxGeometry x="-0.1302" y="-2" relative="1" as="geometry">
            <mxPoint as="offset" />
          </mxGeometry>
        </mxCell>
        <mxCell id="7PSN6oOn31Voh3faXzmX-165" style="edgeStyle=orthogonalEdgeStyle;rounded=0;orthogonalLoop=1;jettySize=auto;html=1;exitX=0;exitY=1;exitDx=0;exitDy=0;entryX=0.077;entryY=-0.017;entryDx=0;entryDy=0;entryPerimeter=0;" edge="1" parent="WIyWlLk6GJQsqaUBKTNV-1" source="WIyWlLk6GJQsqaUBKTNV-6" target="7PSN6oOn31Voh3faXzmX-145">
          <mxGeometry relative="1" as="geometry">
            <mxPoint x="-50" y="1179" as="targetPoint" />
            <Array as="points">
              <mxPoint x="55" y="240" />
              <mxPoint x="-51" y="240" />
            </Array>
          </mxGeometry>
        </mxCell>
        <mxCell id="7PSN6oOn31Voh3faXzmX-166" value="Publish&amp;nbsp;&lt;br&gt;search term" style="edgeLabel;html=1;align=center;verticalAlign=middle;resizable=0;points=[];" vertex="1" connectable="0" parent="7PSN6oOn31Voh3faXzmX-165">
          <mxGeometry x="-0.5919" y="4" relative="1" as="geometry">
            <mxPoint x="-3" y="842" as="offset" />
          </mxGeometry>
        </mxCell>
        <mxCell id="7PSN6oOn31Voh3faXzmX-170" value="classical NLP" style="rounded=0;whiteSpace=wrap;html=1;fillColor=#fff2cc;strokeColor=#d6b656;" vertex="1" parent="WIyWlLk6GJQsqaUBKTNV-1">
          <mxGeometry x="630" y="120" width="120" height="60" as="geometry" />
        </mxCell>
        <mxCell id="7PSN6oOn31Voh3faXzmX-171" value="Python Code" style="rounded=0;whiteSpace=wrap;html=1;fillColor=#d5e8d4;strokeColor=#82b366;" vertex="1" parent="WIyWlLk6GJQsqaUBKTNV-1">
          <mxGeometry x="630" y="195" width="120" height="60" as="geometry" />
        </mxCell>
        <mxCell id="7PSN6oOn31Voh3faXzmX-173" value="LLM API&lt;br&gt;Prompt Engineering with Python preprocessing" style="rounded=0;whiteSpace=wrap;html=1;fillColor=#dae8fc;strokeColor=#6c8ebf;" vertex="1" parent="WIyWlLk6GJQsqaUBKTNV-1">
          <mxGeometry x="630" y="275" width="120" height="70" as="geometry" />
        </mxCell>
        <mxCell id="7PSN6oOn31Voh3faXzmX-174" value="inclusion_decisision" style="rhombus;whiteSpace=wrap;html=1;fillColor=#d5e8d4;strokeColor=#82b366;" vertex="1" parent="WIyWlLk6GJQsqaUBKTNV-1">
          <mxGeometry x="170" y="910" width="180" height="100" as="geometry" />
        </mxCell>
        <mxCell id="7PSN6oOn31Voh3faXzmX-176" value="External input" style="rounded=0;whiteSpace=wrap;html=1;fillColor=#e1d5e7;strokeColor=#9673a6;" vertex="1" parent="WIyWlLk6GJQsqaUBKTNV-1">
          <mxGeometry x="630" y="360" width="120" height="60" as="geometry" />
        </mxCell>
        <mxCell id="7PSN6oOn31Voh3faXzmX-177" value="Output" style="rounded=0;whiteSpace=wrap;html=1;fillColor=#f8cecc;strokeColor=#b85450;" vertex="1" parent="WIyWlLk6GJQsqaUBKTNV-1">
          <mxGeometry x="630" y="440" width="120" height="60" as="geometry" />
        </mxCell>
      </root>
    </mxGraphModel>
  </diagram>
</mxfile>
